<svg width="64" height="64" viewBox="0 0 64 64" fill="none" xmlns="http://www.w3.org/2000/svg">
<path d="M32.0352 41.1675C31.8352 48.2825 32.0852 55.4475 32.7802 57.1675C33.4752 58.8875 34.9677 62.2925 40.0952 61.1975C44.3777 60.28 45.9377 58.5025 46.6127 54.58L48.1952 42.0375M25.8902 5.50003C25.8902 5.50003 2.68019 -3.98997 3.76019 17.5825C3.99019 22.1725 10.3352 52.3325 17.9102 43.2075C20.6752 39.875 23.1752 37.2675 23.1752 37.2675M38.4252 3.76753C37.6252 4.01753 51.3352 -1.24497 59.1302 8.71253C61.8802 12.23 58.6927 26.605 51.0602 37.93" stroke="white" stroke-width="1.79" stroke-linecap="round" stroke-linejoin="round"/>
<path d="M51.0627 37.9251C51.0627 37.9251 51.5627 40.3751 58.8127 38.8801C61.9802 38.2251 60.0727 40.7151 56.8627 42.2051C54.2277 43.4301 48.3177 43.7426 48.2202 42.0551C47.9702 37.6926 51.3302 39.0176 51.0877 37.9251C50.8677 36.9401 49.3627 35.9751 48.3727 33.5651C47.5052 31.4651 36.4727 15.3401 51.4327 17.7326C51.9827 17.6201 47.5327 3.48255 33.5327 3.27755C19.5327 3.07255 19.9752 20.4901 19.9752 20.4901" stroke="white" stroke-width="1.79" stroke-linecap="round" stroke-linejoin="bevel"/>
<path d="M28.1176 39.42C26.1676 41.6 26.7426 41.9825 22.8426 42.785C18.8976 43.5975 21.2176 45.045 22.7276 45.425C24.5626 45.885 28.8076 46.535 31.6776 42.5175C32.5526 41.2925 31.6726 39.3425 30.4726 38.8475C29.8926 38.6075 29.1176 38.3075 28.1226 39.4225L28.1176 39.42Z" stroke="white" stroke-width="1.79" stroke-linejoin="round"/>
<path d="M27.9903 39.3825C27.7903 38.1 28.4103 36.5775 29.0728 34.7925C30.0678 32.1175 32.3628 29.4425 30.5278 20.95C29.1603 14.625 19.9778 19.6325 19.9778 20.49C19.9778 21.3475 20.3928 24.84 19.8278 28.9025C19.0853 34.2075 23.2028 38.6925 27.9428 38.235" stroke="white" stroke-width="1.79" stroke-linecap="round" stroke-linejoin="round"/>
<path d="M25.8054 20.3625C25.7629 20.655 26.3429 21.4375 27.0954 21.5425C27.8479 21.6475 28.4904 21.0375 28.5329 20.7425C28.5754 20.4475 27.9954 20.1275 27.2429 20.0225C26.4904 19.9175 25.8429 20.0725 25.8054 20.3625Z" fill="white" stroke="white" stroke-width="0.5975"/>
<path d="M48.7156 19.765C48.7556 20.0575 48.1781 20.84 47.4256 20.945C46.6731 21.05 46.0256 20.44 45.9881 20.145C45.9506 19.85 46.5256 19.53 47.2781 19.425C48.0306 19.32 48.6781 19.475 48.7156 19.765Z" fill="white" stroke="white" stroke-width="0.2975"/>
<path d="M51.4054 17.7375C51.5304 20.0375 50.9104 21.6001 50.8304 24.0476C50.7154 27.6026 52.5254 31.6725 49.7979 35.7475" stroke="white" stroke-width="1.79" stroke-linecap="round" stroke-linejoin="round"/>
</svg>
